<svg xmlns="http://www.w3.org/2000/svg" width="145.88" height="34.023" viewBox="0 0 145.88 34.023">
  <g id="Group_1669" data-name="Group 1669" transform="translate(-791.092 -494.489)">
    <g id="Group_1667" data-name="Group 1667" style="isolation: isolate">
      <path id="Path_3274" data-name="Path 3274" d="M809.224,495.539v24.922h-5.146v-1.855A6.613,6.613,0,0,1,799,520.777c-4.061,0-7.91-3.221-7.91-8.506s3.849-8.506,7.91-8.506a6.612,6.612,0,0,1,5.076,2.17v-10.4Zm-5.356,16.732a3.764,3.764,0,1,0-3.746,3.675A3.734,3.734,0,0,0,803.868,512.271Z" fill="#0b0b0b"/>
      <path id="Path_3275" data-name="Path 3275" d="M830.783,504.15v16.311h-5.145v-1.855a6.616,6.616,0,0,1-5.076,2.171c-4.06,0-7.911-3.221-7.911-8.506s3.851-8.506,7.911-8.506a6.615,6.615,0,0,1,5.076,2.17V504.15Zm-5.355,8.121a3.764,3.764,0,1,0-3.745,3.675A3.734,3.734,0,0,0,825.428,512.271Z" fill="#0b0b0b"/>
      <path id="Path_3276" data-name="Path 3276" d="M834.491,498.654a3.1,3.1,0,0,1,3.22-3.01,3.042,3.042,0,0,1,3.15,3.01,3.087,3.087,0,0,1-3.15,3.011A3.151,3.151,0,0,1,834.491,498.654Zm.63,5.5H840.3v16.311h-5.181Z" fill="#0b0b0b"/>
      <path id="Path_3277" data-name="Path 3277" d="M843.73,515.071h4.9a1.826,1.826,0,0,0,2.065,1.75c1.085,0,1.995-.455,1.995-1.225,0-.525-.384-.77-1.61-1.051l-2.135-.559c-4.8-1.3-4.935-4.026-4.935-5.391,0-2.415,2.73-4.865,6.685-4.865,3.08,0,6.826,1.435,6.756,5.53h-4.9c0-1.05-.736-1.54-1.75-1.54-.876,0-1.611.35-1.611,1.05,0,.63.56.98,1.4,1.19l2.836.77c4.095,1.12,4.445,3.711,4.445,4.831,0,3.606-3.745,5.216-7.036,5.216C847.2,520.777,843.73,518.782,843.73,515.071Z" fill="#0b0b0b"/>
      <path id="Path_3278" data-name="Path 3278" d="M876.809,504.15l-10.081,24.362H861.2l4.026-9.975-6.441-14.387h5.74l3.4,8.435,3.325-8.435Z" fill="#0b0b0b"/>
    </g>
    <g id="Group_1668" data-name="Group 1668" style="isolation: isolate">
      <path id="Path_3279" data-name="Path 3279" d="M895.673,494.489v25.972h-1.05v-4.025a8.523,8.523,0,1,1,0-8.3V494.489Zm-1.05,17.957a7.474,7.474,0,1,0-7.491,7.315A7.307,7.307,0,0,0,894.623,512.446Z" fill="#0b0b0b"/>
      <path id="Path_3280" data-name="Path 3280" d="M917.583,504.115v16.346h-1.051v-4.025a8.523,8.523,0,1,1,0-8.3v-4.025Zm-1.051,8.331a7.474,7.474,0,1,0-7.49,7.315A7.307,7.307,0,0,0,916.532,512.446Z" fill="#0b0b0b"/>
      <path id="Path_3281" data-name="Path 3281" d="M936.972,504.115l-10.4,24.258H925.42l3.256-7.737-7-16.521h1.155l6.441,15.261,6.545-15.261Z" fill="#0b0b0b"/>
    </g>
  </g>
</svg>
